<svg width="108" height="108" viewBox="0 0 108 108" fill="none" xmlns="http://www.w3.org/2000/svg">
<g clip-path="url(#clip0_139_58)">
<rect x="4" y="4" width="100" height="100" rx="50" fill="#439BF2" fill-opacity="0.64"/>
<path d="M45.4286 34C47.0089 34 48.2857 35.1172 48.2857 36.5V39H59.7143V36.5C59.7143 35.1172 60.9911 34 62.5714 34C64.1518 34 65.4286 35.1172 65.4286 36.5V39H69.7143C72.0804 39 74 40.6797 74 42.75V46.5H34V42.75C34 40.6797 35.9196 39 38.2857 39H42.5714V36.5C42.5714 35.1172 43.8482 34 45.4286 34ZM34 49H74V70.25C74 72.3203 72.0804 74 69.7143 74H38.2857C35.9196 74 34 72.3203 34 70.25V49ZM63.375 57.8281C64.2143 57.0938 64.2143 55.9063 63.375 55.1797C62.5357 54.4531 61.1786 54.4453 60.3482 55.1797L51.8661 62.6016L47.6696 58.9297C46.8304 58.1953 45.4732 58.1953 44.6429 58.9297C43.8125 59.6641 43.8036 60.8516 44.6429 61.5781L50.3571 66.5781C51.1964 67.3125 52.5536 67.3125 53.3839 66.5781L63.375 57.8281Z" fill="white"/>
</g>
<rect x="2" y="2" width="104" height="104" rx="52" stroke="white" stroke-width="4"/>
<defs>
<clipPath id="clip0_139_58">
<rect x="4" y="4" width="100" height="100" rx="50" fill="white"/>
</clipPath>
</defs>
</svg>
