<svg width="108" height="108" viewBox="0 0 108 108" fill="none" xmlns="http://www.w3.org/2000/svg">
<g clip-path="url(#clip0_139_54)">
<rect x="4" y="4" width="100" height="100" rx="50" fill="#439BF2" fill-opacity="0.64"/>
<path d="M54 79C60.6304 79 66.9893 76.3661 71.6777 71.6777C76.3661 66.9893 79 60.6304 79 54C79 47.3696 76.3661 41.0107 71.6777 36.3223C66.9893 31.6339 60.6304 29 54 29C47.3696 29 41.0107 31.6339 36.3223 36.3223C31.6339 41.0107 29 47.3696 29 54C29 60.6304 31.6339 66.9893 36.3223 71.6777C41.0107 76.3661 47.3696 79 54 79ZM65.0352 49.4102L52.5352 61.9102C51.6172 62.8281 50.1328 62.8281 49.2246 61.9102L42.9746 55.6602C42.0566 54.7422 42.0566 53.2578 42.9746 52.3496C43.8926 51.4414 45.377 51.4316 46.2852 52.3496L50.875 56.9395L61.7148 46.0898C62.6328 45.1719 64.1172 45.1719 65.0254 46.0898C65.9336 47.0078 65.9434 48.4922 65.0254 49.4004L65.0352 49.4102Z" fill="white"/>
</g>
<rect x="2" y="2" width="104" height="104" rx="52" stroke="white" stroke-width="4"/>
<defs>
<clipPath id="clip0_139_54">
<rect x="4" y="4" width="100" height="100" rx="50" fill="white"/>
</clipPath>
</defs>
</svg>
