<svg width="108" height="108" viewBox="0 0 108 108" fill="none" xmlns="http://www.w3.org/2000/svg">
<g clip-path="url(#clip0_139_53)">
<rect x="4" y="4" width="100" height="100" rx="50" fill="white"/>
<path d="M65.3887 49.7637L65.7423 49.4102L65.7027 49.3706C66.4795 48.2639 66.3586 46.7265 65.3808 45.7382C64.2759 44.6214 62.4735 44.6241 61.3613 45.7363L61.3611 45.7365L50.8748 56.2322L46.6406 51.998C46.6403 51.9976 46.64 51.9973 46.6397 51.997C45.5323 50.8788 43.7319 50.897 42.623 51.9942C41.5061 53.0991 41.5089 54.9015 42.6211 56.0137L48.8692 62.2618C48.8695 62.2621 48.8698 62.2624 48.8701 62.2627C49.9751 63.3786 51.7768 63.3756 52.8887 62.2637L65.3887 49.7637ZM71.3241 71.3241C66.7295 75.9188 60.4978 78.5 54 78.5C47.5022 78.5 41.2705 75.9188 36.6759 71.3241C32.0812 66.7295 29.5 60.4978 29.5 54C29.5 47.5022 32.0812 41.2705 36.6759 36.6759C41.2705 32.0812 47.5022 29.5 54 29.5C60.4978 29.5 66.7295 32.0812 71.3241 36.6759C75.9188 41.2705 78.5 47.5022 78.5 54C78.5 60.4978 75.9188 66.7295 71.3241 71.3241Z" fill="#439BF2" fill-opacity="0.64" stroke="white"/>
</g>
<rect x="2" y="2" width="104" height="104" rx="52" stroke="#439BF2" stroke-opacity="0.64" stroke-width="4"/>
<defs>
<clipPath id="clip0_139_53">
<rect x="4" y="4" width="100" height="100" rx="50" fill="white"/>
</clipPath>
</defs>
</svg>
