<svg width="108" height="108" viewBox="0 0 108 108" fill="none" xmlns="http://www.w3.org/2000/svg">
<g clip-path="url(#clip0_139_55)">
<rect x="4" y="4" width="100" height="100" rx="50" fill="white"/>
<path d="M54 29C60.6304 29 66.9893 31.6339 71.6777 36.3223C76.3661 41.0107 79 47.3696 79 54C79 60.6304 76.3661 66.9893 71.6777 71.6777C66.9893 76.3661 60.6304 79 54 79C47.3696 79 41.0107 76.3661 36.3223 71.6777C31.6339 66.9893 29 60.6304 29 54C29 47.3696 31.6339 41.0107 36.3223 36.3223C41.0107 31.6339 47.3696 29 54 29ZM51.6562 40.7188V54C51.6562 54.7812 52.0469 55.5137 52.7012 55.9531L62.0762 62.2031C63.1504 62.9258 64.6055 62.6328 65.3281 61.5488C66.0508 60.4648 65.7578 59.0195 64.6738 58.2969L56.3438 52.75V40.7188C56.3438 39.4199 55.2988 38.375 54 38.375C52.7012 38.375 51.6562 39.4199 51.6562 40.7188Z" fill="#439BF2" fill-opacity="0.64"/>
</g>
<rect x="2" y="2" width="104" height="104" rx="52" stroke="#439BF2" stroke-opacity="0.64" stroke-width="4"/>
<defs>
<clipPath id="clip0_139_55">
<rect x="4" y="4" width="100" height="100" rx="50" fill="white"/>
</clipPath>
</defs>
</svg>
